# xmcd
#
# Track frame offsets:
#	182
#	22730
#	43740
#	67677
#	85865
#	97407
#	114590
#	139055
#	152037
#	170050
#
# Disc length: 2617 seconds
#
# Revision: 4
# Processed by: cddbd v1.5.1PL0 Copyright (c) Steve Scherf et al.
# Submitted via: audiograbber 1.83.01
#
DISCID=7e0a370a
DTITLE=Der Expander des Fortschritts - ad acta
DYEAR=1990
DGENRE=
TTITLE0=Wolfszeit
TTITLE1=Nummer im Kopf
TTITLE2=Der Stand der Dinge
TTITLE3=Lonely Fritz
TTITLE4=Alles ich will du
TTITLE5=Warnung
TTITLE6=Buttercremeschnitte
TTITLE7=Spätherbst/Abseits
TTITLE8=Kluge Köpfe rollen gut
TTITLE9=Wasserstände und Tauchtiefen
EXTD=
EXTT0=
EXTT1=
EXTT2=
EXTT3=
EXTT4=
EXTT5=
EXTT6=
EXTT7=
EXTT8=
EXTT9=
PLAYORDER=
